PathFileType	4	(X/Y/Z)	/Users/itak/Documents/Research/Walk-IL/dataset/trc/00267_00010.trc
DataRate	CameraRate	NumFrames	NumMarkers	Units	OrigDataRate	OrigDataStartFrame	OrigNumFrames
100.000000	100.000000	4	54	mm	100.000000	51	415
Frame#	Time	RPSI			LPSI			L3			STRN			T10			C7			CLAV			RBAK			LBAK			LSHO			LUPA			LAEL			LAOL			LWTS			LWPS			LFRA			LIFD			LHPS			LHTS			RSHO			RUPA			RAEL			RAOL			RWTS			RWPS			RFRA			RIFD			RHTS			RHPS			RBHD			LFHD			RFHD			LBHD			LHIP			RHIP			RASI			LKNE			LTHI			LANK			LTIP			LTOE			LMT1			LMT5			LHEE			RKNE			RTHI			RANK			RTIP			RTOE			RMT1			RMT5			RHEE			LASI			*53			
		X1	Y1	Z1	X2	Y2	Z2	X3	Y3	Z3	X4	Y4	Z4	X5	Y5	Z5	X6	Y6	Z6	X7	Y7	Z7	X8	Y8	Z8	X9	Y9	Z9	X10	Y10	Z10	X11	Y11	Z11	X12	Y12	Z12	X13	Y13	Z13	X14	Y14	Z14	X15	Y15	Z15	X16	Y16	Z16	X17	Y17	Z17	X18	Y18	Z18	X19	Y19	Z19	X20	Y20	Z20	X21	Y21	Z21	X22	Y22	Z22	X23	Y23	Z23	X24	Y24	Z24	X25	Y25	Z25	X26	Y26	Z26	X27	Y27	Z27	X28	Y28	Z28	X29	Y29	Z29	X30	Y30	Z30	X31	Y31	Z31	X32	Y32	Z32	X33	Y33	Z33	X34	Y34	Z34	X35	Y35	Z35	X36	Y36	Z36	X37	Y37	Z37	X38	Y38	Z38	X39	Y39	Z39	X40	Y40	Z40	X41	Y41	Z41	X42	Y42	Z42	X43	Y43	Z43	X44	Y44	Z44	X45	Y45	Z45	X46	Y46	Z46	X47	Y47	Z47	X48	Y48	Z48	X49	Y49	Z49	X50	Y50	Z50	X51	Y51	Z51	X52	Y52	Z52	X53	Y53	Z53	X54	Y54	Z54	

52	0.51	659.10595703125	974.498046875	46.54251480102539	657.6188354492188	960.6199340820312	-127.3251800537109	674.7708129882812	1044.203247070312	-43.80054473876953	924.1986694335938	1232.302124023438	-45.58328247070312	662.713623046875	1160.091064453125	-43.68159866333008	699.731201171875	1405.936645507812	-60.44649505615234	858.281982421875	1330.534545898438	-49.15860748291016	650.0771484375	1267.37646484375	14.31953239440918	685.6845092773438	1368.81884765625	-164.56396484375	776.6865234375	1378.461547851562	-214.0518341064453	749.5189819335938	1261.44091796875	-287.0446166992188	745.2447509765625	1060.957153320312	-306.1641540527344	682.3847045898438	1048.1259765625	-247.2621765136719	826.1237182617188	842.6237182617188	-260.5179748535156	794.9156494140625	832.5072631835938	-324.5501708984375	759.9467163085938	957.9954833984375	-317.1464538574219	819.872314453125	654.1011962890625	-263.3683471679688	795.2879638671875	742.4861450195312	-322.7970581054688	846.2940673828125	742.2772827148438	-280.7644348144531	760.009521484375	1389.831665039062	100.5315551757812	750.5747680664062	1334.333740234375	170.4073181152344	740.5806274414062	1071.541137695312	230.6790466308594	705.45947265625	1055.453247070312	140.3305969238281	892.3339233398438	884.4882202148438	191.5736083984375	844.2404174804688	864.6942749023438	258.87890625	775.0372314453125	1008.196716308594	246.0058441162109	958.0650634765625	712.8414916992188	195.8718109130859	955.0222778320312	785.2691650390625	214.9515228271484	903.2889404296875	767.0928955078125	259.6662292480469	722.8775634765625	1570.20068359375	10.890212059021	885.0551147460938	1610.838134765625	-120.2212600708008	888.8909301757812	1613.925170898438	-27.38283920288086	718.0975341796875	1554.5400390625	-136.5528411865234	728.0762939453125	914.7008666992188	-223.2730407714844	765.989013671875	939.2060546875	148.3677368164062	882.6004638671875	951.4401245117188	74.40850067138672	856.1683349609375	461.6502685546875	-231.0783538818359	830.2323608398438	602.096435546875	-234.45263671875	477.6091918945312	219.4376983642578	-177.0541839599609	669.3912353515625	330.8136596679688	-217.9913482666016	603.5794067382812	59.13277816772461	-109.328010559082	556.2817993164062	113.6218643188477	-71.83583831787109	546.9060668945312	117.230094909668	-183.084228515625	451.587890625	260.134521484375	-119.9166412353516	892.9866943359375	477.2723388671875	91.961181640625	867.309814453125	738.682373046875	139.1859741210938	860.5762939453125	38.08330535888672	45.07300186157227	915.4907836914062	354.2449645996094	71.22683715820312	1059.098754882812	32.087158203125	-8.366643905639648	999.8726196289062	31.59612464904785	-48.82605743408203	964.3274536132812	28.85724258422852	63.44260787963867	809.4607543945312	35.42149353027344	-6.319068908691406	865.5789184570312	937.0092163085938	-176.5606231689453	nan	nan	nan	
53	0.52	655.748046875	974.247802734375	46.52611923217773	653.293212890625	960.5855712890625	-127.4335479736328	670.640869140625	1043.763793945312	-44.37821960449219	919.2060546875	1232.128784179688	-46.14252853393555	657.9097900390625	1159.16845703125	-44.61692047119141	694.1661376953125	1405.071166992188	-61.52270889282227	853.0009155273438	1330.203735351562	-49.8751335144043	645.1058349609375	1266.26708984375	13.13828659057617	680.4810791015625	1367.8427734375	-165.6722106933594	771.566650390625	1377.792236328125	-214.9843139648438	745.0314331054688	1260.506591796875	-287.8311767578125	741.8048095703125	1059.948608398438	-306.52978515625	678.8602294921875	1046.890502929688	-247.7269439697266	824.7584838867188	842.7080688476562	-260.2017211914062	793.5941162109375	831.9923095703125	-324.1592712402344	757.3998413085938	957.1371459960938	-317.1819763183594	820.846435546875	654.2217407226562	-262.2706298828125	795.0736694335938	741.9310302734375	-322.0087890625	846.1884765625	742.6039428710938	-280.1399536132812	754.0317993164062	1389.16845703125	99.61147308349609	744.4141235351562	1333.687377929688	169.4800872802734	734.0409545898438	1070.922485351562	229.6786346435547	699.843994140625	1054.748046875	138.9936676025391	885.9771118164062	883.6243896484375	191.6240386962891	837.484619140625	864.0418701171875	258.7296142578125	768.4202270507812	1007.543334960938	245.2538299560547	951.3666381835938	711.871337890625	196.7118835449219	948.3097534179688	784.3312377929688	215.5796508789062	896.3799438476562	766.3682861328125	260.0836181640625	717.5602416992188	1569.755737304688	10.0058422088623	880.0714721679688	1610.141357421875	-120.7223358154297	883.759033203125	1613.082885742188	-27.88166809082031	712.9949340820312	1554.321411132812	-137.4327545166016	722.832275390625	914.4136962890625	-223.7220153808594	762.4846801757812	938.965087890625	147.7677612304688	878.6122436523438	950.779296875	73.48831176757812	845.6168212890625	460.0208129882812	-230.9184265136719	821.727294921875	600.8858032226562	-234.4999847412109	467.0754089355469	217.6316375732422	-175.2266235351562	658.450439453125	329.0776977539062	-217.0003967285156	592.12890625	56.27164077758789	-107.2542343139648	545.37158203125	111.6922302246094	-70.11403656005859	535.7919311523438	114.9726181030273	-181.1567687988281	441.3750915527344	258.6582336425781	-117.993293762207	891.1618041992188	477.4261779785156	91.35025787353516	864.318603515625	738.8095092773438	138.6297302246094	860.6195068359375	38.05965805053711	45.21766662597656	914.1895751953125	354.6517944335938	70.71609497070312	1059.208129882812	32.01464462280273	-8.602309226989746	999.9190673828125	31.59983444213867	-48.93059921264648	964.3909301757812	28.86029434204102	63.32389450073242	809.541259765625	35.1938362121582	-6.127486228942871	860.9144287109375	936.1044311523438	-177.3960266113281	nan	nan	nan	
54	0.53	652.2948608398438	973.9436645507812	46.55292510986328	648.6902465820312	960.540283203125	-127.5290222167969	666.3060913085938	1043.367309570312	-44.95113372802734	914.06103515625	1231.906127929688	-46.77048492431641	652.9342041015625	1158.272338867188	-45.5848274230957	688.495849609375	1404.208740234375	-62.66079711914062	847.6034545898438	1329.836303710938	-50.66418075561523	639.997802734375	1265.1904296875	11.92114448547363	675.1672973632812	1366.864990234375	-166.8509368896484	766.3223266601562	1377.084594726562	-215.9791717529297	740.4508666992188	1259.5478515625	-288.6864929199219	738.3682861328125	1058.911010742188	-307.0044250488281	675.2753295898438	1045.604248046875	-248.3387145996094	823.445556640625	842.8358154296875	-259.9383544921875	792.3837890625	831.5230712890625	-323.8529052734375	754.9109497070312	956.3033447265625	-317.317138671875	821.9544677734375	654.3906860351562	-261.3034973144531	795.0308227539062	741.4439697265625	-321.3203125	846.178955078125	742.997802734375	-279.57568359375	747.9838256835938	1388.52197265625	98.62256622314453	738.2051391601562	1333.041625976562	168.48291015625	727.5714721679688	1070.27197265625	228.5297393798828	694.3020629882812	1054.031005859375	137.5049285888672	879.4462280273438	882.506591796875	191.6451416015625	830.4584350585938	863.2313842773438	258.5113220214844	761.8038940429688	1006.832641601562	244.3698120117188	944.2362060546875	710.5543823242188	197.6511688232422	941.2479858398438	783.0555419921875	216.2691497802734	889.0512084960938	765.4041748046875	260.5162658691406	712.1485595703125	1569.292846679688	9.059496879577637	874.9969482421875	1609.427978515625	-121.2885818481445	878.5445556640625	1612.20849609375	-28.44455718994141	707.7940673828125	1554.09912109375	-138.3775329589844	717.3892211914062	914.1263427734375	-224.1495056152344	758.73876953125	938.6792602539062	147.1915130615234	874.4246826171875	950.0777587890625	72.54093933105469	835.02978515625	458.5119323730469	-230.7768707275391	813.0602416992188	599.7538452148438	-234.5706634521484	456.9005432128906	215.3887329101562	-173.4961090087891	647.7100219726562	327.2550659179688	-216.0196533203125	581.359375	53.1901969909668	-105.4156646728516	534.976806640625	109.3015975952148	-68.58218383789062	525.2296142578125	112.408935546875	-179.3889007568359	431.4166870117188	256.65283203125	-116.1319351196289	889.248046875	477.5783386230469	90.67444610595703	861.1417236328125	738.9395751953125	138.0719909667969	860.656494140625	38.01192855834961	45.36083221435547	912.842529296875	355.0274353027344	70.13414001464844	1059.331665039062	31.96402549743652	-8.863811492919922	999.9625854492188	31.57967567443848	-49.02750396728516	964.4625854492188	28.85836791992188	63.19330596923828	809.65478515625	34.9715461730957	-5.961867332458496	855.9583740234375	935.2189331054688	-178.2718963623047	nan	nan	nan	
55	0.54	648.6290283203125	973.6115112304688	46.60013198852539	643.8136596679688	960.4817504882812	-127.6123580932617	661.753173828125	1042.99560546875	-45.52399826049805	908.7607421875	1231.635498046875	-47.45933532714844	647.7993774414062	1157.3994140625	-46.59622573852539	682.716064453125	1403.35205078125	-63.86117172241211	842.0814208984375	1329.434448242188	-51.52228546142578	634.7352294921875	1264.152954101562	10.66419124603271	669.73974609375	1365.888427734375	-168.101318359375	760.9534912109375	1376.340698242188	-217.0315551757812	735.7896728515625	1258.57470703125	-289.6148376464844	734.9349365234375	1057.852294921875	-307.5905151367188	671.629150390625	1044.274169921875	-249.1098937988281	822.1600952148438	843.0090942382812	-259.7247314453125	791.2737426757812	831.1063842773438	-323.6318969726562	752.4755249023438	955.5076904296875	-317.5568542480469	823.1696166992188	654.612060546875	-260.4718017578125	795.1415405273438	741.04541015625	-320.7453308105469	846.2416381835938	743.4617919921875	-279.0707702636719	741.8602294921875	1387.900390625	97.56541442871094	731.9454956054688	1332.40869140625	167.4187622070312	721.1835327148438	1069.605834960938	227.2411041259766	688.8181762695312	1053.319213867188	135.8843841552734	872.739501953125	881.1592407226562	191.6408386230469	823.1619262695312	862.276611328125	258.2181091308594	755.1924438476562	1006.080993652344	243.3618316650391	936.671630859375	708.9188842773438	198.6555480957031	933.8439331054688	781.4690551757812	217.0064239501953	881.3082885742188	764.2177734375	260.9425048828125	706.6437377929688	1568.818115234375	8.051945686340332	869.8326416015625	1608.693969726562	-121.9269180297852	873.2496948242188	1611.303344726562	-29.07817459106445	702.5012817382812	1553.875122070312	-139.3912963867188	711.7352905273438	913.8370971679688	-224.5547790527344	754.7418212890625	938.3530883789062	146.6576385498047	870.0302124023438	949.3424072265625	71.56167602539062	824.3937377929688	457.1129455566406	-230.6540985107422	804.2085571289062	598.6827392578125	-234.6602630615234	447.120361328125	212.6426544189453	-171.8976287841797	637.204833984375	325.3103942871094	-215.0625915527344	571.3314819335938	49.87981414794922	-103.7919769287109	525.1600341796875	106.4542770385742	-67.21981811523438	515.2850341796875	109.493049621582	-177.7901306152344	421.7341613769531	254.0419158935547	-114.3933029174805	887.2261352539062	477.7298583984375	89.94518280029297	857.763427734375	739.050048828125	137.5106964111328	860.6868896484375	37.93890380859375	45.48612976074219	911.4219970703125	355.383056640625	69.49440765380859	1059.464721679688	31.94237327575684	-9.141506195068359	1000.00244140625	31.53544425964355	-49.11608505249023	964.5450439453125	28.8595142364502	63.05893707275391	809.7954711914062	34.76652908325195	-5.806270599365234	850.7112426757812	934.3526000976562	-179.1923522949219	nan	nan	nan	
